<svg xmlns="http://www.w3.org/2000/svg" xmlns:xlink="http://www.w3.org/1999/xlink" width="221" height="36" viewBox="0 0 221 36">
    <defs>
        <path id="a" d="M.662 1.85H25.86v24.996H.662z"/>
        <path id="c" d="M0 1.394h28.201v4.793H0z"/>
        <path id="e" d="M.344 1.947H27.02v33.42H.344z"/>
    </defs>
    <g fill="none" fill-rule="evenodd">
        <path fill="#737070" d="M71.698 10.085c1.445 1.644 2.164 3.635 2.164 5.99 0 2.33-.72 4.343-2.164 5.994-1.447 1.65-3.162 2.478-5.16 2.478-1.99 0-3.694-.827-5.14-2.478-1.443-1.651-2.178-3.664-2.178-5.993 0-2.356.735-4.347 2.177-5.99 1.447-1.652 3.15-2.47 5.142-2.47 1.997 0 3.712.818 5.16 2.47zm-7.65 10.468c.585 1.326 1.416 1.992 2.49 1.992 1.09 0 1.912-.666 2.505-1.997.58-1.337.871-2.81.871-4.451 0-1.633-.291-3.107-.864-4.452-.565-1.307-1.406-1.986-2.511-1.986-1.075 0-1.906.679-2.491 1.986-.583 1.345-.877 2.819-.877 4.452 0 1.65.294 3.148.877 4.456zm19.018-5.387c.58-.034.857.377.872 1.204.005.834-.279 1.25-.872 1.25l-3.089.031v11.643c0 .583-.19 1.103-.56 1.568-.362.476-.82.71-1.366.71h-1.036c-.238 0-.416-.055-.52-.154-.111-.117-.172-.28-.172-.53V8.494c0-.57-.236-.985-.737-1.235-.5-.275-.897-.491-1.196-.67-.262-.144-.345-.333-.264-.57.081-.229.21-.348.398-.31l4.893.547c.304.036.459.13.51.273.043.137.05.239.05.29v8.578l3.09-.231zM90.194 18.778c-1.247 1.042-2.422 1.827-3.553 2.358-.537.242-.876.213-1.059-.086-.177-.302-.094-.6.261-.902 1.847-1.568 3.327-3.352 4.455-5.41 1.125-2.052 1.69-3.706 1.71-4.962 0-.491-.321-.9-.947-1.211-.651-.32-1.067-.5-1.28-.541-.23-.086-.327-.289-.296-.588.043-.309.225-.439.582-.416l6.026.53c.261.027.431.12.538.328.109.195.134.409.09.663a10.523 10.523 0 0 1-.731 2.556 21.79 21.79 0 0 1-1.34 2.566c.407.38.889.747 1.454 1.092.57.333 1.094.593 1.583.752.522.153.897.26 1.12.33.218.052.517.289.882.655a5.869 5.869 0 0 1 1.237 1.872c.258.666.233 1.183-.058 1.552-.238.302-.608.474-1.108.481-.499.032-1.016-.143-1.55-.507-.672-.4-1.496-1.138-2.514-2.202-1.017-1.058-1.734-1.877-2.152-2.472a23.466 23.466 0 0 1-3.35 3.562zm5.218 3.733c.015 0 .111.042.268.107.168.052.251.236.251.54v3.989c.01.632.117 1.058.3 1.323.172.266.62.406 1.337.406h9.265c.755 0 1.125.291 1.125.9 0 .616-.37.92-1.125.92H94.811c-.504 0-1.07-.174-1.73-.507-.664-.333-.996-1.032-.996-2.09v-3.653c0-.437-.229-.754-.707-.98-.472-.206-.83-.37-1.032-.482-.317-.145-.43-.332-.334-.569.096-.21.223-.322.408-.294l4.992.39zm15.214-9.162c.558-.042.842.364.847 1.18.02.84-.276 1.261-.847 1.261h-3.101v6.243a2.51 2.51 0 0 1-.543 1.578c-.372.458-.83.697-1.376.697h-1.15c-.243 0-.423-.05-.512-.148-.127-.112-.185-.276-.185-.52V8.495c0-.57-.23-.988-.727-1.238-.492-.273-.885-.489-1.217-.668-.243-.143-.329-.33-.248-.572.074-.229.208-.343.393-.31l5.022.552c.274.033.452.127.48.27.04.138.063.24.063.294v6.744l3.101-.218zM128.238 23.081c-1.042.18-2.365.286-3.997.315h-5.92c-1.15 0-1.844-.338-2.07-.98-.23-.65-.342-1.157-.342-1.508v-9.605c0-.59-.167-1-.507-1.219a21.649 21.649 0 0 1-1.008-.686c-.337-.18-.479-.367-.41-.588a.514.514 0 0 1 .463-.328l4.721.549c.307.05.461.146.52.312.038.161.068.237.068.255V20.4c.02.525.162.858.365.993.198.125.492.18.839.156h2.602c1.658.023 3.067-.02 4.19-.12 1.134-.12 2.176-.598 3.131-1.427V8.493c0-.567-.24-.983-.747-1.235-.49-.276-.885-.492-1.214-.668-.248-.146-.34-.328-.248-.57.076-.229.212-.348.39-.312l4.9.554c.305.031.46.122.495.265.04.138.056.24.056.297v8.574l3.104-.231c.555-.036.844.374.861 1.201.018.837-.28 1.253-.861 1.253h-3.104v11.674c0 .58-.185 1.1-.55 1.566-.353.475-.814.712-1.364.712h-1.039c-.243 0-.42-.055-.522-.153-.096-.12-.157-.281-.157-.53v-9.093a5.458 5.458 0 0 1-2.645 1.284M142.61 19.282c-.5 0-.789-.031-.882-.089-.087-.088-.216-.192-.355-.358l-.874-1.183c-.152-.325-.152-.56 0-.734.162-.171.377-.179.65-.02.47.21.857.358 1.129.403.273.041.805.057 1.593.057h20.144c.821 0 1.242.325 1.242.96 0 .65-.421.964-1.242.964h-9.133v2.808H161c.206 0 .343.044.429.13.076.086.121.231.121.429v6.39c-.028.63-.207 1.103-.562 1.402-.355.291-.814.445-1.374.445h-13.005c-.453 0-.884-.154-1.3-.458-.408-.31-.62-.78-.62-1.425v-4.105c0-.406-.074-.72-.198-.967a1.855 1.855 0 0 0-.517-.575 6.01 6.01 0 0 0-.67-.39c-.242-.11-.37-.226-.37-.34 0-.112.019-.227.067-.339.053-.135.167-.197.352-.197h7.432v-2.808h-8.174zm5.06-12.631c.028 0 .117.036.284.094.154.075.24.254.24.561v4.29c-.015.536.077.848.274.983.195.125.57.164 1.1.164h11.621c.71 0 1.07.325 1.07.962 0 .606-.365.938-1.11.938h-14.204c-.686-.052-1.295-.187-1.855-.444-.532-.25-.83-.957-.861-2.153v-3.32c0-.44-.24-.78-.712-.973-.492-.215-.829-.364-1.044-.483-.312-.148-.426-.343-.335-.557.099-.234.23-.345.413-.317l5.12.255zm1.216 22.321c.193.156.429.237.713.237h7.037c.284 0 .512-.081.712-.276a.898.898 0 0 0 .281-.679v-4.469h-9.014v4.47c0 .314.089.55.271.717zM172.458 21.93c-.856.954-1.8 1.815-2.823 2.545-.436.325-.793.377-1.044.13-.261-.234-.22-.561.096-.967 1.404-1.758 2.496-3.788 3.32-6.11.81-2.311 1.287-4.477 1.409-6.52h-1.913c-.429 0-.702-.042-.804-.13a2.006 2.006 0 0 1-.41-.386l-.99-1.318c-.183-.32-.183-.535-.009-.678.173-.128.375-.128.621-.013.41.197.816.327 1.189.382.377.054.907.083 1.601.083h7.407c.685 0 1.042.346 1.042 1.035 0 .686-.357 1.024-1.042 1.024h-2.518a25.582 25.582 0 0 1-.743 3.021 26.7 26.7 0 0 1-1.097 2.832c.236.338.61.707 1.143 1.118.537.418.94.733 1.236.936.456.28.821.457 1.087.535.277.081.515.247.723.5a8.096 8.096 0 0 1 1.145 2.13c.281.795.261 1.351-.048 1.666-.261.299-.623.44-1.097.395a2.42 2.42 0 0 1-1.305-.56c-.667-.55-1.376-1.312-2.134-2.303-.75-.99-1.353-1.828-1.774-2.5a18.832 18.832 0 0 1-2.268 3.153zm14.873-13.39c0-.596-.117-.99-.337-1.23a4.839 4.839 0 0 0-.88-.634c-.433-.258-.595-.502-.507-.713.092-.208.282-.299.55-.255l3.916.552c.306.033.458.124.506.27.028.135.054.24.054.291v22.547c0 .601-.175 1.095-.525 1.54-.352.44-.793.663-1.356.663h-.727c-.24 0-.413-.052-.514-.154-.114-.114-.18-.278-.18-.53V17.432h-1.878v11.656c0 .58-.183 1.102-.525 1.539a1.598 1.598 0 0 1-1.338.668h-.75a.817.817 0 0 1-.522-.161c-.096-.102-.157-.273-.157-.52V8.787c0-.572-.111-.983-.36-1.21a3.657 3.657 0 0 0-.869-.608c-.37-.223-.537-.439-.512-.691.023-.26.213-.362.568-.31l3.918.588c.283.02.44.11.486.252.04.148.06.224.06.3v8.181h1.879V8.54z"/>
        <g transform="translate(195.125 3.853)">
            <mask id="b" fill="#fff">
                <use xlink:href="#a"/>
            </mask>
            <path fill="#737070" d="M15.342 15.36c-1.201.228-2.767.353-4.678.368H4.732c-1.15 0-1.83-.32-2.06-.962-.234-.647-.343-1.154-.343-1.51V7.242c0-.406-.066-.733-.192-.967a1.788 1.788 0 0 0-.487-.583c-.215-.15-.43-.265-.654-.397-.228-.117-.334-.227-.334-.338 0-.104.023-.224.076-.349.063-.114.16-.177.327-.177H13.54c.674 0 1.016.302 1.029.913.015.621-.337.913-1.029.913H6.133v6.502c.046.505.17.845.38.975.203.133.487.185.831.177h2.623c1.893.008 3.502-.044 4.858-.195 1.356-.135 2.443-.536 3.264-1.214v-7.86c0-.57-.254-.985-.745-1.235-.494-.276-.892-.491-1.204-.67-.248-.146-.342-.328-.248-.57.073-.229.208-.349.388-.31l5.088.552c.276.03.436.122.484.267.028.138.046.24.046.294v4.823l3.094-.213c.575-.034.866.364.869 1.188.013.85-.289 1.261-.87 1.261h-3.093v8.125c0 .583-.185 1.1-.53 1.573-.378.468-.831.692-1.376.692h-1.214c-.243 0-.418-.042-.522-.133-.111-.104-.167-.288-.167-.528v-5.54c-.641.507-1.556.905-2.747 1.141zm-5.81 2.94c.032 0 .113.031.28.096.155.057.241.252.241.538v4.363c.02.63.13 1.058.307 1.32.19.266.644.406 1.348.406h9.478c.757 0 1.127.292 1.127.903 0 .616-.37.92-1.127.92H8.88c-.49 0-1.067-.177-1.726-.51-.664-.33-.993-1.032-.993-2.087v-4.004c0-.458-.223-.793-.7-.999-.478-.19-.818-.361-1.044-.47-.319-.156-.423-.338-.334-.56.086-.236.223-.33.416-.32l5.032.404z" mask="url(#b)"/>
        </g>
        <g transform="translate(0 11.653)">
            <mask id="d" fill="#fff">
                <use xlink:href="#c"/>
            </mask>
            <path fill="#003D30" d="M25.301 2.651c.135-.127.383-.02.383-.395-.383-.619-.834.047-1.29-.068-.124-.33-.256.045-.393.068l.239.257c.37-.228.702.117 1.061.138m2.788 1.303c-.236-.042-.42.023-.608.2-.426.008-1.082-.666-1.336.322.302 1.022.824 0 1.252.136.25.046.608.2.798-.136.018-.21 0-.397-.106-.522m-2.337.452a.4.4 0 0 0-.114-.101c-.096-.102-.195-.19-.311-.156-.649-.237-1.827-.372-2.598-.247.396-.588 1.374-.187 1.88-.297.606-.124 1.513.208 2.02-.34.023-.018-.243-.2-.26-.2-.13-.055-.267-.086-.416-.019-.081.029-.127.11-.228.13-.946.2-1.878-.546-2.758-.34-.686.143-1.246.078-1.94.002.035-.044.073-.07.106-.101.395.05.775-.02 1.082-.533-.124-.036-.246-.06-.365-.091 0-.026-.015-.039-.025-.055-.216-.156-.502-.174-.794-.143a5.098 5.098 0 0 0-.945-.143c-.337 0-.595.037-.915.216-.238.13-.438.406-.702.484-.329.106-.851-.408-.352-.463-.119-.64-.806-.343-1.16-.343h-.953a3.01 3.01 0 0 0-1.13-.151c-.13.003-.312.08-.507.15H13.5l-.154-.14c-.343.36-.743-.408-.981.14h-.24c-.432 0-.804-.309-1.232-.267-.416.036-.887.317-1.328.374-1.034.143-2.088-.023-3.135.055-1.46.096-2.932.218-4.25 1.011-.195.11-.352.487-.547.323-.365.866.385.327.5.866-.148.239-.239.052-.421.127-.231.398-.538.018-.753.322-.24-.29-.537-.28-.844-.26-.079.042-.14.167-.106.333.086.447.897.312 1.132.403-.053.099-.086.273-.136.38.114.197.253.197.402.356.553.58 1.186.51 1.896.286.81-.26 1.277-.26 2.126-.104.905.156 1.812.156 2.714.143.535-.016 1.71-.421 2.2.036-.02.029-.056.076-.038.128.09.057.15-.151.228 0 .147-.419.499.026.636-.4.076-.193 2.792-.203 3.124-.224.525-.037 1.136-.138 1.66-.065.677.096 1.178.41 1.863.252.691-.156 1.317-.408 2.024-.377.76.023 1.483.278 2.248.091.684-.174 1.614-.075 2.235-.517.48-.338.968.408 1.374-.2.073-.185.337.122.304-.26-.102.028-.178-.011-.249-.07" mask="url(#d)"/>
        </g>
        <g transform="translate(2.534 -1.347)">
            <mask id="f" fill="#fff">
                <use xlink:href="#e"/>
            </mask>
            <path fill="#003D30" d="M26.702 23.605c.038.09.12.21.137.255-.081-.305-.157-.567-.198-.848.18-.325-.258-.247-.005-.624.657-1.04.358-2.675-.05-3.747-.472-1.214-.378-2.363-.677-3.642-.104-.473-.829-3.931-.4-4.007-.046.005-.079.013-.13.021-.162-.608.122-1.29-.243-1.838-.205-.297-.236-.866-.301-1.18-.061-.068-.122-.151-.097-.268.102-.609-.757-1.44-1.054-1.904-.851-1.344-2.063-3.972-4.103-3.668-.01 0-.775-.133-.816-.156-.106-.065-.636-.02-.795-.052-.05.031-.071.114-.114.15-.337-.005-.439.414-.824.32-.23-.052-.796.539-1.011.617l.018.111c-.117.086-.11.112-.122.284-.094.093-.289.296-.362.161-.023.008-.261.075-.22.174l-.077.031c-.073.172-.256.06-.263.279-.056.098-.21.195-.294.228-.135.333-.375.221-.5.479-.005.182-.134.112-.197.327-.183 0-.124.26-.281.279-.104.08-.342.218-.375.423-.033.013-.071.047-.094.013-.015.091-.155.149-.147.284-.147.405-.444.44-.61.717l.05.102c.073.13-1.625 2.283-1.8 2.548-.412.642-.823 1.297-1.241 1.952-.274.424-.659 1.363-1.08 1.644.046.226-.334.408-.09.535-.188.323-.48.762-.62 1.134-.1.078-.055.21-.118.374-.216.016-.102.294-.261.351l-.15.252c-.028.151-.192.253-.15.39-.07.032-.03.26-.159.208l-.05.245c-.328.073-.221.603-.472.91-.086.08-.271.19-.213.314-.094.07-.094.31-.238.247-.208.832-.783 1.475-1.204 2.291.023-.036-.038.538-.06.588-.056.22-.3.288-.234.587-.068.18-.243.138-.263.278-.046.151-.193.409-.373.458v-.026s-.063.107.015.112c.056-.005.026.078-.015.132h.19l-.055.258c-.112-.02-.054.11-.09.177-.045.12-.123.338-.245.262-.073.083.008.091 0 .14-.152.037-.066.339-.152.453.043-.073-.094.528-.132.598-.086.2-.22.34-.317.528-.174.348-.27 1.123-.6 1.352.018.187-.086.333-.294.418.05.081.01.123.023.214.05.005.116-.006.172.01-.172-.047-.707 2.007-.796 2.168a3.728 3.728 0 0 0-.342.783c-.111.335-.14.624-.453.8.068.074.048.123.038.227 0 0 .164.073.177.122.02.089-.147.198-.147.27-.109.747-.471 1.701-.393 2.463.02.192 1.328 2.202 1.602 1.542.043-.117.192-.097.192-.25.208-.073.502-.491.596-.224l.073-.187c.317-.075.246-.502.467-.749l.15.04c.095-.185.354-.37.31-.612l.026-.015c.046-.135.249-.26.16-.414l.198-.122c-.127-.166.212-.286.055-.478.185-.208.254-.549.385-.869-.195-.049.071-.218.094-.325l-.078.042c.078-.18-.008-.218-.092-.312l.14-.01c.197-.266.405-.528.618-.752.036 0 .013.057.013.057.246-.057.114-.192.263-.348l-.124-.08c-.038-.032-.038-.102.02-.151-.248-.466.3-1.095.482-1.482.175-.419.208-.97.423-1.35-.068-.239.195-1.003.279-1.279.091-.408.127-.866.299-1.245.078-.185.535-.64.494-.765-.013-.062.058-.067.076-.125-.14-.083-.081-.27-.018-.452.097-.07.14-.304.251-.27.089-.084.124-.255.152-.375.155-.002.124-.153.244-.239.025-.096.068-.26 0-.374 0-.375.293-.063.357-.396-.064-.054.015-.195.08-.288.026-.349.305-.624.434-.936.16-.739.821-1.477 1.153-2.145.251-.518.507-1.03.786-1.524.175-.283.763-.884.674-1.245.162-.086.192-.3.281-.414.332-.117.117-.598.423-.572.033-.124.254-.239.185-.36.145-.136.373-.196.39-.378.378-.302.421-.673.687-.99.266-.04.059-.424.335-.378v-.033l.177-.091c0-.281.261-.281.345-.448.243-.504.671-.746.98-1.25.47-.044.692-.749 1.159-.926 0 0 .382-.538.481-.621.188-.18.441-.372.684-.476 0 .094.287-.22.287-.086.27-.044.494-.075.686.122.17-.312 1.32 1.173 1.412 1.313.094.151.91 1.722.324 1.27.11.428.168.857.137 1.302-.043.806-.215 1.133.203 1.906.213.384.289.561.382.964.033.06.094-.005.142.01-.035.09-.03.216-.053.318.023-.14.312.338.33.38a.17.17 0 0 0 .131-.068c-.022.158.152.174.14.338-.008.64.2.616.471 1.157-.182-.065-.01.205-.076.01.253.741.672 1.51.96 2.208.246.616.857 1.505 1.351 1.952 1.075.931 1.247 2.42 2.043 3.544-.104-.143-.056-.424-.185-.58.048-.109.093-.044.154-.052l.033-.148.17.359c-.036-.219-.109-.43-.056-.663" mask="url(#f)"/>
        </g>
        <path fill="#7D2138" d="M12.945 25.4l-.735.023c-.281.008-.398.039-.469.146a.5.5 0 0 0-.086.179c-.015.034-.033.062-.06.062-.028 0-.051-.028-.051-.083 0-.08.104-.54.114-.582.015-.06.028-.099.066-.099.033 0 .088.062.205.062.14.013.327.029.5.029h1.938c.154 0 .273-.016.342-.029.078-.015.111-.023.137-.023.028 0 .043.023.043.104 0 .107-.026.458-.026.582 0 .052-.007.076-.043.076-.033 0-.05-.013-.058-.096l-.005-.05c-.01-.132-.14-.278-.57-.288l-.621-.013v2.067c0 .47 0 .873.023 1.089.007.143.035.255.192.27.061.006.18.024.246.024.061 0 .084.01.084.01 0 .065-.043.078-.102.078-.321 0-.636-.013-.762-.013-.12 0-.426.013-.629.013-.058 0-.091-.013-.091-.047 0 0 .013-.041.076-.041.068 0 .134-.018.17-.024.111-.015.127-.127.147-.275.025-.21.025-.614.025-1.084V25.4zM17.934 27.093c.003 0 .018-.01.018-.01v-.117c0-.65-.003-.806-.01-.941-.005-.146-.046-.188-.178-.234a1.135 1.135 0 0 0-.17-.019c-.06 0-.07-.005-.07-.046 0-.026.025-.042.094-.042.225 0 .532.016.643.016.102 0 .395-.016.553-.016.068 0 .098.016.098.042 0 .041-.03.046-.086.046-.033 0-.066.01-.126.019-.104.015-.147.083-.152.234-.006.135-.006.25-.006.902v.77c0 .39 0 .722.01.912.023.122.044.205.186.224.048.01.144.013.215.013.046 0 .06.018.06.018 0 .062-.032.073-.088.073-.269 0-.562-.01-.682-.01-.093 0-.4.01-.565.01-.06 0-.093-.01-.093-.042 0 0 .012-.05.063-.05a.754.754 0 0 0 .167-.012c.081-.019.11-.102.122-.23.015-.184.015-.514.015-.899v-.335s-.015-.026-.018-.026h-1.637c-.015 0-.035.01-.035.01v.351c0 .385.015.715.028.905.017.122.04.205.167.224.058.01.157.013.225.013.049 0 .071.018.071.018 0 .062-.043.073-.101.073-.271 0-.57-.01-.697-.01-.091 0-.385.01-.552.01-.056 0-.084-.01-.084-.042 0 0 .01-.05.066-.05a.639.639 0 0 0 .152-.012c.091-.019.112-.102.132-.23.018-.184.018-.517.018-.907v-.77c0-.652 0-.766-.008-.901-.01-.146-.046-.188-.188-.234a.825.825 0 0 0-.17-.019c-.045 0-.07-.005-.07-.046 0-.026.035-.042.088-.042.231 0 .525.016.634.016.109 0 .408-.016.583-.016.055 0 .086.016.086.042 0 .041-.028.046-.081.046-.033 0-.066.01-.12.019-.116.015-.159.083-.164.234-.015.135-.015.29-.015.94v.09s.02.038.035.038h1.637zM19.954 26.93v-.908c-.02-.14-.056-.182-.19-.234a1.269 1.269 0 0 0-.18-.013c-.051 0-.061-.008-.061-.05 0-.02.023-.041.094-.041.225 0 .494.02.618.02.14 0 1.105.006 1.18 0 .084-.007.15-.023.183-.025.036-.005.054-.024.076-.024.028 0 .028.024.028.024 0 .047-.025.096-.033.291 0 .052-.017.24-.023.289-.007.015-.012.07-.048.07-.033 0-.035-.026-.035-.026 0-.057-.003-.14-.033-.19-.036-.075-.081-.135-.286-.161a14.33 14.33 0 0 0-.68-.018c-.02 0-.027.018-.027.044v1.06c0 .03 0 .047.027.047.102 0 .66 0 .758-.013.104-.005.172-.015.208-.062.035-.036.056-.05.068-.05.028 0 .036.014.036.014 0 .044-.008.124-.036.34-.01.086-.012.255-.012.255 0 .07-.01.127-.056.127-.028 0-.036-.02-.036-.02 0-.065 0-.12-.01-.172-.035-.086-.083-.15-.24-.177-.087 0-.578-.013-.68-.013-.027 0-.027.013-.027.05v.345c0 .146-.003.502 0 .632.007.294.136.364.585.364.116 0 .291-.005.408-.067.109-.037.15-.128.18-.312.01-.045.028-.07.056-.07.038 0 .038.049.038.106 0 .101-.038.382-.056.473-.038.11-.071.11-.23.11-.328 0-.594-.008-.799-.016-.21 0-.375-.003-.507-.003-.053 0-.14.003-.243.003-.112 0-.216.008-.3.008-.052 0-.085-.01-.085-.037 0 0 .015-.047.076-.047.055 0 .109-.01.152-.018.086-.018.111-.101.121-.234.02-.18.02-.515.02-.905v-.767zM24.563 27.619c-.023 0-.03.013-.038.05l-.274.709a.944.944 0 0 0-.076.307c0 .096.05.166.198.166h.078c.053 0 .074.008.074.008 0 .07-.03.078-.092.078-.152 0-.362-.01-.511-.01-.064 0-.337.01-.59.01-.062 0-.092-.008-.092-.044 0 0 .025-.042.063-.042.036 0 .11-.01.155-.018.223-.024.317-.195.415-.455l1.235-3.17c.063-.14.08-.2.136-.2.043 0 .084.044.122.151.124.286.912 2.35 1.229 3.12.18.455.32.52.42.551.077.01.153.021.214.021.045 0 .063.008.063.008 0 .07-.053.078-.23.078-.173 0-.535 0-.923-.008-.094-.003-.152-.003-.152-.036 0 0 .018-.042.073-.052a.077.077 0 0 0 .04-.115l-.392-1.066c-.01-.028-.025-.041-.043-.041h-1.102zm1-.25c.031 0 .031-.018.031-.042l-.446-1.235c-.005-.023-.02-.049-.03-.049-.01 0-.02.026-.033.05l-.444 1.234c-.012.024 0 .042.018.042h.905zM27.422 28.886c-.07-.029-.086-.052-.086-.151 0-.226.025-.497.03-.58 0-.052.02-.101.056-.101.038 0 .043.039.043.039 0 .085.013.18.03.254.097.323.426.42.7.42.37 0 .603-.235.603-.537 0-.184-.048-.371-.433-.61l-.254-.151c-.506-.3-.681-.596-.681-.98 0-.515.491-.859 1.094-.859.284 0 .505.042.614.073.045.005.066.024.066.024 0 .083-.02.205-.02.548 0 .083-.013.135-.049.135-.023 0-.045-.026-.045-.083a.496.496 0 0 0-.12-.275c-.058-.078-.202-.203-.473-.203-.312 0-.601.161-.601.455 0 .2.081.353.469.57l.17.1c.577.326.752.648.752 1.046 0 .314-.116.574-.428.798-.213.15-.494.177-.732.177-.246 0-.515-.026-.705-.11M30.508 27.859c-.03 0-.035.002-.043.028l-.225.575a.606.606 0 0 0-.069.262c0 .076.04.125.167.125h.066c.061 0 .066.016.066.016 0 .062-.028.073-.07.073-.145 0-.345-.013-.475-.013-.05 0-.289.013-.509.013-.053 0-.081-.01-.081-.037 0 0 .015-.052.05-.052.044 0 .092-.008.13-.008.192-.023.273-.158.36-.38l1.132-2.695c.043-.128.079-.177.127-.177.063 0 .091.039.127.138.111.241.834 1.994 1.105 2.641.164.398.286.45.365.466.068.007.121.015.17.015.03 0 .053.008.053.008 0 .07-.023.08-.185.08-.15 0-.46 0-.83-.01-.083-.002-.13-.002-.13-.026 0 0 0-.044.047-.052.033-.008.074-.05.043-.104l-.332-.858c-.007-.026-.025-.028-.035-.028h-1.024zm.92-.24c.02 0 .023-.01.02-.028l-.408-1.087c0-.016-.015-.042-.017-.042-.016 0-.02.026-.028.042l-.418 1.087c0 .018 0 .028.017.028h.834z"/>
        <path fill="#7D2138" d="M33.698 28.358c.003.327.06.423.152.457a.66.66 0 0 0 .218.037c.05 0 .079.013.079.013 0 .065-.043.072-.094.072-.289 0-.487-.01-.575-.01-.03 0-.244.01-.459.01-.063 0-.096-.007-.096-.036 0 0 .03-.05.063-.05.058 0 .14-.01.195-.023.12-.031.137-.145.14-.52l.043-2.543c0-.088.022-.15.07-.15.044 0 .107.067.19.135.051.057.695.738 1.334 1.367.286.312.859.913.93.97h.015l-.036-1.903c-.017-.265-.053-.343-.142-.385-.07-.026-.18-.026-.23-.026-.066 0-.071-.023-.071-.023 0-.052.038-.065.106-.065.223 0 .464.018.55.018.048 0 .22-.018.42-.018.07 0 .105.013.105.041 0 0-.03.047-.074.047-.048 0-.078 0-.132.016-.124.034-.152.106-.164.359l-.046 2.711c0 .086-.033.125-.068.125-.069 0-.127-.047-.175-.083-.269-.263-.811-.783-1.27-1.232-.469-.466-.93-.999-1.021-1.069h-.01l.053 1.758zM39.41 28.25c.009.392.087.522.178.57a.991.991 0 0 0 .254.03c.06 0 .083.008.083.008 0 .07-.038.08-.109.08-.316 0-.52-.012-.613-.012-.038 0-.279.013-.527.013-.063 0-.106-.01-.106-.047 0 0 .03-.042.076-.042.066 0 .147-.008.223-.023.119-.044.142-.193.154-.63l.046-2.994c0-.091.005-.16.058-.16.053 0 .099.069.185.146.06.063.803.898 1.526 1.623.33.346 1 1.069 1.08 1.146h.02l-.044-2.261c-.002-.307-.048-.406-.16-.46-.078-.03-.2-.03-.273-.03-.058 0-.081-.018-.081-.018 0-.07.063-.07.137-.07.253 0 .494.021.595.021.053 0 .246-.02.482-.02.063 0 .114 0 .114.038 0 0-.036.05-.089.05-.048 0-.099 0-.144.013-.15.052-.185.158-.185.436l-.059 3.186c0 .1-.02.16-.066.16-.045 0-.111-.064-.164-.111-.304-.302-.938-.962-1.447-1.482-.54-.546-1.082-1.175-1.176-1.28h-.02l.053 2.12zM43.89 27.859c-.02 0-.025.002-.038.028l-.235.575a.864.864 0 0 0-.059.262c0 .076.038.125.178.125h.06c.049 0 .061.016.061.016 0 .062-.02.073-.063.073-.147 0-.352-.013-.492-.013-.043 0-.268.013-.491.013-.064 0-.084-.01-.084-.037 0 0 .01-.052.04-.052.049 0 .09-.008.135-.008.19-.023.266-.158.357-.38l1.14-2.695c.041-.128.082-.177.12-.177.066 0 .078.039.129.138.101.241.836 1.994 1.097 2.641.165.398.297.45.37.466.069.007.117.015.167.015.046 0 .059.008.059.008 0 .07-.02.08-.183.08-.152 0-.474 0-.831-.01-.081-.002-.132-.002-.132-.026 0 0 .01-.044.053-.052.033-.008.056-.05.041-.104l-.332-.858c-.013-.026-.023-.028-.048-.028H43.89zm.928-.24c.02 0 .025-.01.02-.028l-.408-1.087c-.008-.016-.01-.042-.023-.042-.007 0-.025.026-.025.042l-.416 1.087c-.007.018 0 .028.018.028h.834z"/>
        <path fill="#7D2138" d="M47.087 28.358c.013.327.056.423.142.457.079.026.16.037.223.037.059 0 .079.013.079.013 0 .065-.036.072-.099.072-.276 0-.484-.01-.552-.01-.046 0-.256.01-.472.01-.055 0-.096-.007-.096-.036 0 0 .02-.05.06-.05.064 0 .143-.01.199-.023.111-.031.126-.145.144-.52l.03-2.543c0-.088.033-.15.071-.15.064 0 .114.067.193.135.05.057.692.738 1.33 1.367.29.312.872.913.935.97h.02l-.042-1.903c-.005-.265-.041-.343-.152-.385-.056-.026-.17-.026-.223-.026a.121.121 0 0 1-.074-.023c0-.052.048-.065.104-.065.243 0 .461.018.555.018.05 0 .215-.018.43-.018.056 0 .102.013.102.041 0 0-.028.047-.078.047-.041 0-.082 0-.13.016-.121.034-.16.106-.167.359l-.043 2.711c0 .086-.036.125-.066.125a.256.256 0 0 1-.175-.083 72.136 72.136 0 0 1-1.27-1.232c-.466-.466-.924-.999-1.013-1.069h-.018l.053 1.758zM50.766 26.93c0-.656.01-.768-.015-.908 0-.148-.04-.182-.178-.234a1.518 1.518 0 0 0-.167-.013c-.05 0-.081-.008-.081-.05 0-.02.035-.041.101-.041.239 0 .527.02.65.02.11 0 .394-.02.552-.02.065 0 .093.02.093.042 0 .041-.028.049-.063.049-.05 0-.076.008-.13.013-.11.02-.144.086-.164.234-.008.14-.008.252-.008.907v.598c0 .627.132.877.332 1.038.193.169.406.18.545.18.19 0 .41-.058.578-.227.243-.231.261-.611.261-1.053v-.536c0-.655-.018-.767-.018-.907-.002-.14-.03-.182-.175-.234a1.282 1.282 0 0 0-.157-.013c-.053 0-.078-.008-.078-.05 0-.02.03-.041.093-.041.22 0 .507.02.515.02.046 0 .34-.02.502-.02.068 0 .098.02.098.042 0 .041-.03.049-.07.049-.061 0-.084.008-.137.013-.127.02-.145.086-.155.234-.008.14-.008.252-.008.907v.471c0 .47-.055.98-.428 1.287-.284.257-.63.307-.904.307-.229 0-.68-.01-.996-.289-.218-.195-.388-.52-.388-1.146v-.63zM54.775 25.712c.013-.08.048-.117.086-.117.033 0 .071.018.135.132l1.155 2.395 1.163-2.42c.038-.07.074-.107.11-.107.037 0 .093.044.098.132l.395 2.652c.049.27.084.39.22.432.128.031.193.042.242.042.045 0 .068.007.068.007 0 .065-.05.081-.109.081-.114 0-.73-.016-.897-.042-.112 0-.13-.013-.13-.013 0-.054.018-.062.049-.072.028-.008.033-.065.015-.185l-.233-1.859h-.013l-.94 1.914c-.086.215-.116.244-.162.244-.06 0-.114-.075-.172-.208-.12-.203-.454-.86-.505-.98a66.364 66.364 0 0 0-.423-.915h-.033l-.192 1.677a1.038 1.038 0 0 0-.023.205c0 .078.063.107.134.122.079.013.12.024.15.024.045 0 .076.013.076.013 0 .062-.033.075-.107.075-.19 0-.377-.016-.456-.016-.086 0-.284.016-.428.016-.038 0-.081-.013-.081-.047 0 0 .033-.041.068-.041.04 0 .069 0 .137-.021.112-.008.162-.182.17-.323l.433-2.797zM12.916 33.54c0 .48 0 .855.027 1.074.01.145.028.257.18.278.071.005.173.016.249.016.058 0 .086.013.086.041 0 .031-.038.047-.107.047-.309 0-.615-.016-.75-.016-.137 0-.443.016-.628.016-.064 0-.099-.008-.099-.047 0-.028.01-.041.073-.041.079 0 .135-.01.178-.016.091-.02.127-.133.14-.278.02-.219.02-.593.02-1.074v-.902c0-.767 0-.905-.008-1.066-.005-.174-.043-.252-.21-.281-.036-.026-.12-.026-.188-.026-.058 0-.089-.005-.089-.005 0-.07.043-.076.12-.076h.392c.135.006.241.006.307.006h1.305c.094-.006.155-.006.2-.021a.177.177 0 0 1 .084-.029c.017 0 .043.01.043.044 0 .042-.038.094-.053.23-.003.049-.01.35-.02.41-.01.031-.013.068-.054.068-.025 0-.045-.021-.045-.078 0-.05 0-.133-.036-.195-.033-.073-.134-.151-.317-.151l-.76-.018c-.038 0-.04.018-.04.072v1.264c0 .029 0 .042.03.042h.628c.084 0 .147 0 .22-.008.1-.005.16-.029.214-.094.025-.018.038-.05.06-.05.026 0 .039.024.039.024 0 .057-.023.177-.049.333a8.175 8.175 0 0 0-.012.372c0 .05 0 .101-.056.101-.023 0-.036-.041-.036-.078 0-.039-.017-.086-.025-.158a.28.28 0 0 0-.25-.177c-.12-.005-.65-.005-.733-.005-.028 0-.03.002-.03.036v.416zM14.788 33.37c0-.741.496-1.69 1.814-1.69 1.085 0 1.766.629 1.766 1.617 0 .98-.702 1.755-1.814 1.755-1.267 0-1.766-.918-1.766-1.682m2.934.085c0-.951-.552-1.539-1.25-1.539-.483 0-1.048.263-1.048 1.329 0 .884.486 1.573 1.307 1.573.302 0 .991-.146.991-1.363M19.134 32.989c0-.645.016-.762-.007-.908-.008-.15-.04-.19-.183-.234a1.017 1.017 0 0 0-.164-.015c-.051 0-.076-.008-.076-.052 0 0 .03-.031.088-.031.244 0 .525.015.647.015.124 0 .405-.015.56-.015.07 0 .103.015.103.015 0 .06-.027.068-.073.068-.053 0-.079.008-.132.015-.104.024-.144.084-.152.234-.013.146-.013.263-.013.908v.608c0 .622.114.86.325 1.038a.83.83 0 0 0 .547.174.8.8 0 0 0 .586-.226c.235-.234.25-.617.25-1.043v-.551c0-.645-.002-.762-.015-.908-.012-.145-.03-.19-.175-.234a1.04 1.04 0 0 0-.152-.015c-.06 0-.078-.008-.078-.052 0 0 .025-.031.08-.031.231 0 .525.015.525.015.049 0 .335-.015.51-.015.056 0 .073.015.073.015 0 .06-.01.068-.068.068-.04 0-.061.008-.124.015-.122.024-.145.084-.16.234v1.373c0 .479-.053.986-.418 1.287-.307.268-.641.31-.92.31-.23 0-.674-.008-.988-.294-.22-.187-.396-.512-.396-1.134v-.634zM23.238 34.417c.002.325.06.434.142.453a.682.682 0 0 0 .225.044c.046 0 .079.01.079.01 0 .065-.038.07-.1.07-.278 0-.476-.013-.562-.013-.043 0-.243.013-.464.013-.06 0-.1-.005-.1-.044 0 0 .024-.036.065-.036.066 0 .142-.013.205-.021.104-.036.122-.159.137-.53l.03-2.538c0-.094.033-.156.074-.156.053 0 .117.08.195.148.043.055.694.741 1.333 1.365.286.3.87.91.933.965h.012l-.04-1.903c0-.263-.04-.344-.145-.383-.068-.03-.172-.03-.228-.03-.058 0-.066-.014-.066-.048 0 0 .04-.033.114-.033.216 0 .449.015.543.015.048 0 .207-.015.423-.015.06 0 .096.005.096.005 0 .062-.018.075-.07.075-.046 0-.084 0-.138.018-.109.042-.144.11-.154.354l-.048 2.714c0 .089-.033.13-.061.13-.079 0-.142-.052-.19-.096a62.892 62.892 0 0 1-1.262-1.23c-.474-.47-.933-.982-1.014-1.06h-.013l.049 1.757zM27.107 32.99c0-.645 0-.762-.016-.907-.005-.146-.038-.19-.177-.234a.96.96 0 0 0-.172-.016c-.048 0-.081-.008-.081-.052 0 0 .043-.031.106-.031.226 0 .504.013.618.013.135 0 .451-.013.702-.013.555 0 1.278 0 1.741.494.22.218.423.577.423 1.087a1.7 1.7 0 0 1-.478 1.193c-.196.203-.652.517-1.45.517-.165 0-.35-.026-.52-.03a3.291 3.291 0 0 0-.433-.03c-.058 0-.15.006-.246.006-.109 0-.215.008-.309.008-.048 0-.073-.013-.073-.042 0 0 .01-.044.066-.044.06 0 .106-.008.152-.016.088-.02.106-.101.121-.226.026-.185.026-.52.026-.918v-.759zm.58.476v.87c.01.11.015.26.056.305.058.083.23.166.57.166.395 0 .687-.07.945-.293.271-.234.375-.624.375-1.059 0-.546-.22-.897-.418-1.076-.398-.361-.867-.408-1.211-.408-.084 0-.23.018-.261.028-.04.019-.056.045-.056.089V33.466zM31.385 33.918c-.032 0-.032.003-.04.031l-.236.57a.748.748 0 0 0-.068.265c0 .083.043.125.182.125h.051c.06 0 .079.013.079.013 0 .065-.026.073-.082.073-.139 0-.34-.016-.468-.016-.056 0-.284.016-.515.016-.045 0-.076-.008-.076-.045 0 0 .03-.041.048-.041.046 0 .092-.008.137-.008.195-.031.261-.164.35-.382l1.135-2.696c.053-.125.076-.177.127-.177.06 0 .089.034.127.135.106.242.823 2.002 1.1 2.647.172.39.296.442.377.465.063.008.109.016.16.016.043 0 .063.01.063.041 0 .037-.03.045-.19.045-.155 0-.469 0-.841-.008-.074-.008-.125-.008-.125-.037 0 0 .013-.036.064-.041.023-.008.05-.042.035-.102l-.327-.858c-.02-.028-.038-.03-.055-.03h-1.012zm.923-.236c.013 0 .023-.016.013-.026l-.403-1.092c-.005-.026-.005-.037-.028-.037-.008 0-.01.01-.018.037l-.418 1.084c-.005.018 0 .034.013.034h.84zM34.557 32.018l-.649.013c-.25.002-.35.036-.41.124-.051.07-.061.115-.071.156-.013.034-.023.052-.051.052-.04 0-.043-.028-.043-.07 0-.067.086-.486.104-.53.005-.047.01-.083.04-.083s.074.044.18.067c.135.008.292.016.441.016h1.751c.145 0 .238-.016.297-.016.068-.015.106-.031.124-.031.028 0 .033.031.033.096l-.005.515c-.008.042-.02.073-.046.073-.038 0-.045-.024-.045-.089l-.005-.041c-.01-.115-.122-.24-.512-.247l-.553-.005v1.734c0 .395.01.73.03.912.02.125.039.206.173.227.053.007.155.015.208.015.055 0 .078.029.078.029 0 .044-.033.06-.088.06-.287 0-.57-.016-.697-.016-.094 0-.4.016-.563.016-.06 0-.083-.016-.083-.042 0 0 .012-.047.06-.047a.772.772 0 0 0 .155-.015c.094-.021.109-.102.134-.227.013-.182.013-.517.013-.912v-1.734zM37.1 32.989c0-.645 0-.762-.007-.908-.007-.145-.053-.19-.147-.22a.402.402 0 0 0-.162-.03c-.043 0-.06-.007-.06-.051 0 0 .035-.031.1-.031.16 0 .46.015.586.015.101 0 .385-.015.55-.015.056 0 .089.015.089.015 0 .06-.018.068-.076.068-.03 0-.069.008-.125.015-.116.024-.152.084-.152.234-.017.146-.017.263-.017.908v.759c0 .419 0 .767.017.941.016.12.049.182.173.203.06.008.162.016.225.016a.11.11 0 0 1 .076.026c0 .046-.04.06-.091.06-.284 0-.575-.014-.7-.014-.096 0-.395.013-.57.013-.05 0-.078-.013-.078-.041 0 0 .01-.044.07-.044a.616.616 0 0 0 .148-.016c.091-.02.116-.083.137-.208.015-.17.015-.517.015-.936v-.76zM38.577 33.37c0-.741.504-1.69 1.82-1.69 1.094 0 1.768.629 1.768 1.617 0 .98-.697 1.755-1.804 1.755-1.272 0-1.784-.918-1.784-1.682m2.955.085c0-.951-.558-1.539-1.262-1.539-.48 0-1.044.263-1.044 1.329 0 .884.486 1.573 1.305 1.573.306 0 1-.146 1-1.363M43.24 34.417c.016.325.066.434.153.453a.58.58 0 0 0 .225.044c.048 0 .081.01.081.01 0 .065-.04.07-.104.07-.286 0-.476-.013-.56-.013-.035 0-.25.013-.461.013-.066 0-.114-.005-.114-.044 0 0 .046-.036.076-.036.063 0 .137-.013.2-.021.11-.036.124-.159.14-.53l.038-2.538c0-.094.022-.156.063-.156.058 0 .116.08.18.148.066.055.714.741 1.348 1.365.294.3.87.91.927.965h.03l-.052-1.903c-.005-.263-.046-.344-.14-.383-.073-.03-.177-.03-.233-.03-.058 0-.07-.014-.07-.048 0 0 .055-.033.103-.033.233 0 .461.015.565.015.046 0 .203-.015.418-.015a.88.88 0 0 1 .102.005c0 .062-.028.075-.081.075-.041 0-.079 0-.122.018-.13.042-.155.11-.157.354l-.056 2.714c0 .089-.028.13-.07.13-.08 0-.138-.052-.176-.096-.273-.242-.808-.782-1.264-1.23-.477-.47-.938-.982-1.021-1.06h-.016l.048 1.757z"/>
    </g>
</svg>
